{
    "asset" : {
        "generator" : "Khronos glTF Blender I/O v1.4.40",
        "version" : "2.0"
    },
    "scene" : 0,
    "scenes" : [
        {
            "name" : "Scene",
            "nodes" : [
                0,
                1,
                2,
                3,
                4
            ]
        }
    ],
    "nodes" : [
        {
            "mesh" : 0,
            "name" : "Cube",
            "scale" : [
                0.3357875347137451,
                0.3357875347137451,
                0.3357875347137451
            ],
            "translation" : [
                4.813941478729248,
                3.71301007270813,
                4.219974517822266
            ]
        },
        {
            "name" : "Camera",
            "rotation" : [
                0.3698001503944397,
                0.5227863192558289,
                -0.26867586374282837,
                0.7195523381233215
            ],
            "scale" : [
                0.33578750491142273,
                0.3357875347137451,
                0.3357875347137451
            ],
            "translation" : [
                16.982194900512695,
                12.330001831054688,
                6.240270614624023
            ]
        },
        {
            "mesh" : 1,
            "name" : "Cylinder",
            "scale" : [
                1.2963416576385498,
                0.4803551733493805,
                1.2963416576385498
            ],
            "translation" : [
                4.813941478729248,
                3.71301007270813,
                2.310272216796875
            ]
        },
        {
            "name" : "Point",
            "scale" : [
                0.3357875347137451,
                0.3357875347137451,
                0.3357875347137451
            ],
            "translation" : [
                4.813941478729248,
                4.837024211883545,
                2.310272216796875
            ]
        },
        {
            "mesh" : 2,
            "name" : "Plane",
            "scale" : [
                33.57875442504883,
                33.57875442504883,
                33.57875442504883
            ],
            "translation" : [
                4.813941478729248,
                3.357421875,
                2.310272216796875
            ]
        }
    ],
    "materials" : [
        {
            "doubleSided" : true,
            "emissiveFactor" : [
                0.35179972648620605,
                1,
                1
            ],
            "name" : "Material",
            "pbrMetallicRoughness" : {}
        },
        {
            "doubleSided" : true,
            "name" : "Material.001",
            "pbrMetallicRoughness" : {
                "baseColorFactor" : [
                    0.2529430389404297,
                    0.2529430389404297,
                    0.2529430389404297,
                    1
                ],
                "metallicFactor" : 0.800000011920929,
                "roughnessFactor" : 0.30000001192092896
            }
        },
        {
            "doubleSided" : true,
            "emissiveFactor" : [
                0.3517824038863182,
                0.4069549962878227,
                1
            ],
            "name" : "Material.002",
            "pbrMetallicRoughness" : {}
        },
        {
            "doubleSided" : true,
            "emissiveFactor" : [
                1,
                1,
                1
            ],
            "name" : "Material.003",
            "pbrMetallicRoughness" : {}
        },
        {
            "doubleSided" : true,
            "name" : "Material.005",
            "pbrMetallicRoughness" : {
                "baseColorFactor" : [
                    0.012216831557452679,
                    0.012216831557452679,
                    0.012216831557452679,
                    1
                ],
                "metallicFactor" : 0.800000011920929,
                "roughnessFactor" : 0.30000001192092896
            }
        }
    ],
    "meshes" : [
        {
            "name" : "Cube",
            "primitives" : [
                {
                    "attributes" : {
                        "POSITION" : 0,
                        "NORMAL" : 1,
                        "TEXCOORD_0" : 2
                    },
                    "indices" : 3,
                    "material" : 0
                },
                {
                    "attributes" : {
                        "POSITION" : 4,
                        "NORMAL" : 5,
                        "TEXCOORD_0" : 6
                    },
                    "indices" : 7,
                    "material" : 1
                },
                {
                    "attributes" : {
                        "POSITION" : 8,
                        "NORMAL" : 9,
                        "TEXCOORD_0" : 10
                    },
                    "indices" : 11,
                    "material" : 2
                },
                {
                    "attributes" : {
                        "POSITION" : 12,
                        "NORMAL" : 13,
                        "TEXCOORD_0" : 14
                    },
                    "indices" : 11,
                    "material" : 3
                }
            ]
        },
        {
            "name" : "Cylinder",
            "primitives" : [
                {
                    "attributes" : {
                        "POSITION" : 15,
                        "NORMAL" : 16,
                        "TEXCOORD_0" : 17
                    },
                    "indices" : 18,
                    "material" : 4
                }
            ]
        },
        {
            "name" : "Plane",
            "primitives" : [
                {
                    "attributes" : {
                        "POSITION" : 19,
                        "NORMAL" : 20,
                        "TEXCOORD_0" : 21
                    },
                    "indices" : 11
                }
            ]
        }
    ],
    "accessors" : [
        {
            "bufferView" : 0,
            "componentType" : 5126,
            "count" : 4,
            "max" : [
                0.5544627904891968,
                0.717449426651001,
                -0.09119364619255066
            ],
            "min" : [
                -1.1315116882324219,
                0.717449426651001,
                -1.5671420097351074
            ],
            "type" : "VEC3"
        },
        {
            "bufferView" : 1,
            "componentType" : 5126,
            "count" : 4,
            "type" : "VEC3"
        },
        {
            "bufferView" : 2,
            "componentType" : 5126,
            "count" : 4,
            "type" : "VEC2"
        },
        {
            "bufferView" : 3,
            "componentType" : 5123,
            "count" : 6,
            "type" : "SCALAR"
        },
        {
            "bufferView" : 4,
            "componentType" : 5126,
            "count" : 143,
            "max" : [
                2.190112590789795,
                1,
                0.17083215713500977
            ],
            "min" : [
                -2.585801601409912,
                -1,
                -5.178168773651123
            ],
            "type" : "VEC3"
        },
        {
            "bufferView" : 5,
            "componentType" : 5126,
            "count" : 143,
            "type" : "VEC3"
        },
        {
            "bufferView" : 6,
            "componentType" : 5126,
            "count" : 143,
            "type" : "VEC2"
        },
        {
            "bufferView" : 7,
            "componentType" : 5123,
            "count" : 306,
            "type" : "SCALAR"
        },
        {
            "bufferView" : 8,
            "componentType" : 5126,
            "count" : 4,
            "max" : [
                1.1098556518554688,
                0.717449426651001,
                -3.499967336654663
            ],
            "min" : [
                -1.8392643928527832,
                0.717449426651001,
                -4.91614294052124
            ],
            "type" : "VEC3"
        },
        {
            "bufferView" : 9,
            "componentType" : 5126,
            "count" : 4,
            "type" : "VEC3"
        },
        {
            "bufferView" : 10,
            "componentType" : 5126,
            "count" : 4,
            "type" : "VEC2"
        },
        {
            "bufferView" : 11,
            "componentType" : 5123,
            "count" : 6,
            "type" : "SCALAR"
        },
        {
            "bufferView" : 12,
            "componentType" : 5126,
            "count" : 4,
            "max" : [
                0.13516849279403687,
                0.717449426651001,
                -2.091193675994873
            ],
            "min" : [
                -1.7419277429580688,
                0.717449426651001,
                -2.9759156703948975
            ],
            "type" : "VEC3"
        },
        {
            "bufferView" : 13,
            "componentType" : 5126,
            "count" : 4,
            "type" : "VEC3"
        },
        {
            "bufferView" : 14,
            "componentType" : 5126,
            "count" : 4,
            "type" : "VEC2"
        },
        {
            "bufferView" : 15,
            "componentType" : 5126,
            "count" : 450,
            "max" : [
                1,
                1.0707733631134033,
                1
            ],
            "min" : [
                -1,
                -1.299567699432373,
                -1
            ],
            "type" : "VEC3"
        },
        {
            "bufferView" : 16,
            "componentType" : 5126,
            "count" : 450,
            "type" : "VEC3"
        },
        {
            "bufferView" : 17,
            "componentType" : 5126,
            "count" : 450,
            "type" : "VEC2"
        },
        {
            "bufferView" : 18,
            "componentType" : 5123,
            "count" : 2292,
            "type" : "SCALAR"
        },
        {
            "bufferView" : 19,
            "componentType" : 5126,
            "count" : 4,
            "max" : [
                1,
                0,
                1
            ],
            "min" : [
                -1,
                0,
                -1
            ],
            "type" : "VEC3"
        },
        {
            "bufferView" : 20,
            "componentType" : 5126,
            "count" : 4,
            "type" : "VEC3"
        },
        {
            "bufferView" : 21,
            "componentType" : 5126,
            "count" : 4,
            "type" : "VEC2"
        }
    ],
    "bufferViews" : [
        {
            "buffer" : 0,
            "byteLength" : 48,
            "byteOffset" : 0
        },
        {
            "buffer" : 0,
            "byteLength" : 48,
            "byteOffset" : 48
        },
        {
            "buffer" : 0,
            "byteLength" : 32,
            "byteOffset" : 96
        },
        {
            "buffer" : 0,
            "byteLength" : 12,
            "byteOffset" : 128
        },
        {
            "buffer" : 0,
            "byteLength" : 1716,
            "byteOffset" : 140
        },
        {
            "buffer" : 0,
            "byteLength" : 1716,
            "byteOffset" : 1856
        },
        {
            "buffer" : 0,
            "byteLength" : 1144,
            "byteOffset" : 3572
        },
        {
            "buffer" : 0,
            "byteLength" : 612,
            "byteOffset" : 4716
        },
        {
            "buffer" : 0,
            "byteLength" : 48,
            "byteOffset" : 5328
        },
        {
            "buffer" : 0,
            "byteLength" : 48,
            "byteOffset" : 5376
        },
        {
            "buffer" : 0,
            "byteLength" : 32,
            "byteOffset" : 5424
        },
        {
            "buffer" : 0,
            "byteLength" : 12,
            "byteOffset" : 5456
        },
        {
            "buffer" : 0,
            "byteLength" : 48,
            "byteOffset" : 5468
        },
        {
            "buffer" : 0,
            "byteLength" : 48,
            "byteOffset" : 5516
        },
        {
            "buffer" : 0,
            "byteLength" : 32,
            "byteOffset" : 5564
        },
        {
            "buffer" : 0,
            "byteLength" : 5400,
            "byteOffset" : 5596
        },
        {
            "buffer" : 0,
            "byteLength" : 5400,
            "byteOffset" : 10996
        },
        {
            "buffer" : 0,
            "byteLength" : 3600,
            "byteOffset" : 16396
        },
        {
            "buffer" : 0,
            "byteLength" : 4584,
            "byteOffset" : 19996
        },
        {
            "buffer" : 0,
            "byteLength" : 48,
            "byteOffset" : 24580
        },
        {
            "buffer" : 0,
            "byteLength" : 48,
            "byteOffset" : 24628
        },
        {
            "buffer" : 0,
            "byteLength" : 32,
            "byteOffset" : 24676
        }
    ],
    "buffers" : [
        {
            "byteLength" : 24708,
            "uri" : "data:application/octet-stream;base64,"
        }
    ]
}
